<svg width="38" height="38" viewBox="0 0 38 38" fill="none" xmlns="http://www.w3.org/2000/svg">
<path d="M28.9985 33.0535C26.5419 30.3099 22.9726 28.5833 19 28.5833C15.0274 28.5833 11.4578 30.3099 9.00114 33.0535M19 36.25C9.47309 36.25 1.75 28.5269 1.75 19C1.75 9.47309 9.47309 1.75 19 1.75C28.5269 1.75 36.25 9.47309 36.25 19C36.25 28.5269 28.5269 36.25 19 36.25ZM19 22.8333C15.8244 22.8333 13.25 20.259 13.25 17.0833C13.25 13.9077 15.8244 11.3333 19 11.3333C22.1756 11.3333 24.75 13.9077 24.75 17.0833C24.75 20.259 22.1756 22.8333 19 22.8333Z" stroke="#1D1D1D" stroke-width="2" stroke-linecap="round" stroke-linejoin="round"/>
</svg>
